<svg width="80" height="80" viewBox="0 0 80 80" fill="none" xmlns="http://www.w3.org/2000/svg">
<path fill-rule="evenodd" clip-rule="evenodd" d="M10.0199 13.8393L10.9083 12.3018L12.3364 11.2762L13.6021 10.6993L68.3321 10.8443L69.8239 11.6693L71.4108 13.0337L71.6461 67.845L70.6524 68.924L68.6658 69.8443L13.153 70.0768L11.2302 69.1475L9.85205 67.4812L10.0199 13.8393ZM12.973 58.4843L68.6114 58.4468L68.7692 13.9522L13.1724 13.7822L12.973 58.4843ZM24.6317 66.4443L32.0227 66.51L32.0571 65.4575L25.898 65.4012L25.9592 64.255L32.0074 64.28L32.0564 63.4865L26.0011 63.4365C26.0011 63.4365 25.9864 62.1728 26.0024 62.0209C26.0183 61.869 32.063 62.1728 32.063 62.1728L32.0474 61.379L24.6936 61.4084L24.6317 66.4443ZM59.3192 66.1318L66.7102 66.1975L66.7446 65.145L60.5855 65.0887L60.6467 63.9425L66.6949 63.9675L66.7439 63.174L60.6886 63.124C60.6886 63.124 60.6739 61.8603 60.6899 61.7084C60.7058 61.5565 66.7505 61.8603 66.7505 61.8603L66.7349 61.0665L59.3811 61.0959L59.3192 66.1318ZM34.4199 61.434L34.3814 66.3296L44.1021 66.375L44.1089 61.4543L42.2796 61.4293L42.3324 65.1318L39.8946 65.1772L39.8452 61.4646L38.1889 61.4081L38.2252 65.2237L35.8492 65.1503L35.7827 61.419L34.4199 61.434ZM46.4896 61.4059L46.3733 66.4637L47.7346 66.4422C47.7346 66.4422 47.6877 61.4921 47.648 61.4131C47.6083 61.3337 46.4896 61.4062 46.4896 61.4062V61.4059ZM15.0436 61.4515L15.0008 66.4681L16.4052 66.4356L16.4024 64.4653L19.4767 64.505L20.6786 66.1903L22.6317 66.2053L21.0721 64.53L22.4002 63.6131L22.338 61.2603L15.0436 61.4515ZM50.0436 61.4515L50.0008 66.4681L51.4052 66.4356L51.4024 64.4653L54.4767 64.505L55.6786 66.1903L57.6317 66.2053L56.072 64.53L57.4002 63.6131L57.338 61.2603L50.0436 61.4515Z" fill="#E50E78"/>
<path fill-rule="evenodd" clip-rule="evenodd" d="M16.4801 45.9265L23.3992 45.8281L28.0329 44.9303L32.4129 43.1678L34.2204 42.1106L36.3595 43.53L38.962 44.7993L35.3998 46.9578L31.9398 48.7034L28.8961 49.7825L25.302 50.319L16.4873 50.4815L16.4801 45.9265ZM16.3611 38.3922L20.2595 38.4218L22.5448 37.8775L24.8298 36.884L27.7017 38.3053L30.6536 39.7334L27.0923 41.7325L23.3754 42.5893L20.2673 43.0334L16.1982 43.0959L16.3611 38.3922Z" fill="#E50E78"/>
<path fill-rule="evenodd" clip-rule="evenodd" d="M16.4346 33.4657L20.9733 33.7182L25.2264 35.1782L29.4793 37.1144L33.1918 38.8869L37.0002 41.4897L40.6502 43.9016L44.0139 46.1203L48.4711 48.0944L52.978 49.9672L55.3583 50.3797L65.358 50.3775L65.3705 45.6353L57.3402 45.8885L52.4396 44.4469L47.2189 42.1725L43.1199 39.2907L38.7368 36.3763L34.2439 33.9263L29.9546 31.5557L25.3499 29.4738L21.723 28.6394L16.5027 28.6978L16.4346 33.4657Z" fill="#E50E78"/>
<path fill-rule="evenodd" clip-rule="evenodd" d="M16.5083 26.0759L23.2299 26.0918L26.9114 26.8218L30.8152 28.4406L34.4017 30.2812L38.9721 33.0109L42.6536 35.6134L47.4461 38.5649L51.6674 40.6915L56.0155 42.4052L59.253 43.0081L65.7405 43.0381L65.7377 38.3296L60.1967 38.5518L55.0402 36.7899L50.1074 33.9702L44.5355 30.7662L39.4127 27.4021L34.6086 24.6143L30.0717 22.5165L27.0314 21.6834L25.6055 21.3937L16.5383 21.5934L16.5083 26.0759Z" fill="#E50E78"/>
<path fill-rule="evenodd" clip-rule="evenodd" d="M65.7537 33.2224L65.8265 28.1762L60.1256 28.2362L57.4668 28.744L53.9743 29.7915L51.2509 31.1246L50.2256 31.6959L53.0781 33.1184L55.9343 34.6737L59.0762 33.7762L61.4884 33.3278L65.7537 33.2224ZM65.3915 25.9093L65.5421 20.9556L59.3271 20.9859L54.8753 21.0156L50.774 22.1265L46.4499 24.1259L43.1187 26.5678L43.1431 27.1953L45.2378 28.4331L47.5228 30.0199L50.5696 28.2899L54.029 27.1043L58.409 26.1406L65.3915 25.9093ZM16.6749 62.5009L16.6431 63.6118L20.3753 63.6406L20.534 62.4871L16.6749 62.5009ZM51.6749 62.5009L51.6431 63.6118L55.3753 63.6406L55.534 62.4871L51.6749 62.5009Z" fill="#E50E78"/>
</svg>
